<svg width="18" height="14" viewBox="0 0 18 14" fill="none" xmlns="http://www.w3.org/2000/svg">
<path d="M16.247 1.179C17.277 2.273 17.83 3.5 17.83 5.489C17.83 8.989 15.373 12.126 11.8 13.677L10.907 12.299C14.242 10.495 14.894 8.154 15.154 6.678C14.617 6.956 13.914 7.053 13.225 6.989C11.421 6.822 9.999 5.341 9.999 3.5C9.999 2.57174 10.3677 1.6815 11.0241 1.02513C11.6805 0.368749 12.5707 0 13.499 0C14.572 0 15.598 0.49 16.247 1.179ZM6.247 1.179C7.277 2.273 7.83 3.5 7.83 5.489C7.83 8.989 5.373 12.126 1.8 13.677L0.907 12.299C4.242 10.495 4.894 8.154 5.154 6.678C4.617 6.956 3.914 7.053 3.225 6.989C1.421 6.822 0 5.341 0 3.5C0 2.57174 0.368749 1.6815 1.02513 1.02513C1.6815 0.368749 2.57174 0 3.5 0C4.573 0 5.599 0.49 6.248 1.179H6.247Z" fill="black" fill-opacity="0.8"/>
</svg>
