<svg width="18" height="14" viewBox="0 0 18 14" fill="none" xmlns="http://www.w3.org/2000/svg">
<path d="M1.58308 12.498C0.553078 11.404 7.85073e-05 10.177 7.86812e-05 8.188C7.89871e-05 4.688 2.45708 1.551 6.03008 8.7576e-07L6.92308 1.378C3.58808 3.182 2.93608 5.523 2.67608 6.999C3.21308 6.721 3.91608 6.624 4.60508 6.688C6.40908 6.855 7.83108 8.336 7.83108 10.177C7.83108 11.1053 7.46233 11.9955 6.80595 12.6519C6.14957 13.3083 5.25934 13.677 4.33108 13.677C3.25808 13.677 2.23208 13.187 1.58308 12.498ZM11.5831 12.498C10.5531 11.404 10.0001 10.177 10.0001 8.188C10.0001 4.688 12.4571 1.551 16.0301 1.74999e-06L16.9231 1.378C13.5881 3.182 12.9361 5.523 12.6761 6.999C13.2131 6.721 13.9161 6.624 14.6051 6.688C16.4091 6.855 17.8301 8.336 17.8301 10.177C17.8301 11.1053 17.4613 11.9955 16.805 12.6519C16.1486 13.3083 15.2583 13.677 14.3301 13.677C13.2571 13.677 12.2311 13.187 11.5821 12.498L11.5831 12.498Z" fill="black" fill-opacity="0.8"/>
</svg>
