<svg width="48" height="48" viewBox="0 0 48 48" fill="none" xmlns="http://www.w3.org/2000/svg">
<path d="M24.0009 6.54541C19.2607 6.54541 18.6658 6.56614 16.804 6.65087C14.9459 6.73596 13.6776 7.03014 12.5678 7.46177C11.4198 7.90759 10.446 8.50396 9.47587 9.4745C8.50499 10.4447 7.90864 11.4185 7.46138 12.5661C7.02867 13.6763 6.73413 14.945 6.6505 16.8025C6.56723 18.6643 6.54541 19.2596 6.54541 24C6.54541 28.7403 6.5665 29.3334 6.65086 31.1952C6.73631 33.0534 7.03049 34.3218 7.46175 35.4316C7.90791 36.5796 8.50426 37.5534 9.47478 38.5236C10.4446 39.4945 11.4184 40.0923 12.5656 40.5381C13.6761 40.9698 14.9448 41.264 16.8026 41.349C18.6643 41.4338 19.2588 41.4545 23.9987 41.4545C28.7393 41.4545 29.3324 41.4338 31.1941 41.349C33.0522 41.264 34.322 40.9698 35.4325 40.5381C36.5801 40.0923 37.5525 39.4945 38.5223 38.5236C39.4931 37.5534 40.0895 36.5796 40.5367 35.432C40.9658 34.3218 41.2604 33.053 41.3476 31.1956C41.4313 29.3338 41.4531 28.7403 41.4531 24C41.4531 19.2596 41.4313 18.6647 41.3476 16.8029C41.2604 14.9447 40.9658 13.6763 40.5367 12.5665C40.0895 11.4185 39.4931 10.4447 38.5223 9.4745C37.5514 8.50359 36.5805 7.90723 35.4314 7.46177C34.3188 7.03014 33.0497 6.73596 31.1916 6.65087C29.3298 6.56614 28.7371 6.54541 23.9954 6.54541H24.0009ZM22.4351 9.69086C22.8998 9.69014 23.4184 9.69086 24.0009 9.69086C28.6611 9.69086 29.2135 9.70759 31.0538 9.79123C32.7555 9.86905 33.6791 10.1534 34.2944 10.3923C35.1089 10.7087 35.6896 11.0869 36.3001 11.6978C36.911 12.3087 37.2892 12.8905 37.6063 13.705C37.8452 14.3196 38.1299 15.2432 38.2074 16.945C38.291 18.785 38.3092 19.3378 38.3092 23.996C38.3092 28.6541 38.291 29.2069 38.2074 31.0469C38.1295 32.7487 37.8452 33.6723 37.6063 34.2869C37.2899 35.1014 36.911 35.6814 36.3001 36.292C35.6893 36.9029 35.1093 37.281 34.2944 37.5974C33.6799 37.8374 32.7555 38.121 31.0538 38.1989C29.2138 38.2825 28.6611 38.3007 24.0009 38.3007C19.3403 38.3007 18.7879 38.2825 16.948 38.1989C15.2462 38.1203 14.3226 37.836 13.707 37.597C12.8925 37.2807 12.3107 36.9025 11.6998 36.2916C11.0889 35.6807 10.7107 35.1003 10.3937 34.2854C10.1548 33.6709 9.87004 32.7472 9.79258 31.0454C9.70895 29.2054 9.69222 28.6527 9.69222 23.9916C9.69222 19.3305 9.70895 18.7807 9.79258 16.9407C9.8704 15.2389 10.1548 14.3152 10.3937 13.7C10.71 12.8854 11.0889 12.3036 11.6998 11.6927C12.3107 11.0818 12.8925 10.7036 13.707 10.3865C14.3223 10.1465 15.2462 9.86286 16.948 9.78468C18.5581 9.71196 19.1821 9.69014 22.4351 9.6865V9.69086ZM33.3177 12.589C32.1614 12.589 31.2232 13.5261 31.2232 14.6829C31.2232 15.8392 32.1614 16.7774 33.3177 16.7774C34.474 16.7774 35.4122 15.8392 35.4122 14.6829C35.4122 13.5265 34.474 12.5883 33.3177 12.5883V12.589ZM24.0009 15.0363C19.0508 15.0363 15.0375 19.0498 15.0375 24C15.0375 28.9501 19.0508 32.9618 24.0009 32.9618C28.9509 32.9618 32.9628 28.9501 32.9628 24C32.9628 19.0498 28.9505 15.0363 24.0005 15.0363H24.0009ZM24.0009 18.1818C27.2139 18.1818 29.8189 20.7865 29.8189 24C29.8189 27.213 27.2139 29.8181 24.0009 29.8181C20.7875 29.8181 18.1829 27.213 18.1829 24C18.1829 20.7865 20.7875 18.1818 24.0009 18.1818Z" fill="url(#paint0_radial)"/>
<path d="M24.0009 6.54541C19.2607 6.54541 18.6658 6.56614 16.804 6.65087C14.9459 6.73596 13.6776 7.03014 12.5678 7.46177C11.4198 7.90759 10.446 8.50396 9.47587 9.4745C8.50499 10.4447 7.90864 11.4185 7.46138 12.5661C7.02867 13.6763 6.73413 14.945 6.6505 16.8025C6.56723 18.6643 6.54541 19.2596 6.54541 24C6.54541 28.7403 6.5665 29.3334 6.65086 31.1952C6.73631 33.0534 7.03049 34.3218 7.46175 35.4316C7.90791 36.5796 8.50426 37.5534 9.47478 38.5236C10.4446 39.4945 11.4184 40.0923 12.5656 40.5381C13.6761 40.9698 14.9448 41.264 16.8026 41.349C18.6643 41.4338 19.2588 41.4545 23.9987 41.4545C28.7393 41.4545 29.3324 41.4338 31.1941 41.349C33.0522 41.264 34.322 40.9698 35.4325 40.5381C36.5801 40.0923 37.5525 39.4945 38.5223 38.5236C39.4931 37.5534 40.0895 36.5796 40.5367 35.432C40.9658 34.3218 41.2604 33.053 41.3476 31.1956C41.4313 29.3338 41.4531 28.7403 41.4531 24C41.4531 19.2596 41.4313 18.6647 41.3476 16.8029C41.2604 14.9447 40.9658 13.6763 40.5367 12.5665C40.0895 11.4185 39.4931 10.4447 38.5223 9.4745C37.5514 8.50359 36.5805 7.90723 35.4314 7.46177C34.3188 7.03014 33.0497 6.73596 31.1916 6.65087C29.3298 6.56614 28.7371 6.54541 23.9954 6.54541H24.0009ZM22.4351 9.69086C22.8998 9.69014 23.4184 9.69086 24.0009 9.69086C28.6611 9.69086 29.2135 9.70759 31.0538 9.79123C32.7555 9.86905 33.6791 10.1534 34.2944 10.3923C35.1089 10.7087 35.6896 11.0869 36.3001 11.6978C36.911 12.3087 37.2892 12.8905 37.6063 13.705C37.8452 14.3196 38.1299 15.2432 38.2074 16.945C38.291 18.785 38.3092 19.3378 38.3092 23.996C38.3092 28.6541 38.291 29.2069 38.2074 31.0469C38.1295 32.7487 37.8452 33.6723 37.6063 34.2869C37.2899 35.1014 36.911 35.6814 36.3001 36.292C35.6893 36.9029 35.1093 37.281 34.2944 37.5974C33.6799 37.8374 32.7555 38.121 31.0538 38.1989C29.2138 38.2825 28.6611 38.3007 24.0009 38.3007C19.3403 38.3007 18.7879 38.2825 16.948 38.1989C15.2462 38.1203 14.3226 37.836 13.707 37.597C12.8925 37.2807 12.3107 36.9025 11.6998 36.2916C11.0889 35.6807 10.7107 35.1003 10.3937 34.2854C10.1548 33.6709 9.87004 32.7472 9.79258 31.0454C9.70895 29.2054 9.69222 28.6527 9.69222 23.9916C9.69222 19.3305 9.70895 18.7807 9.79258 16.9407C9.8704 15.2389 10.1548 14.3152 10.3937 13.7C10.71 12.8854 11.0889 12.3036 11.6998 11.6927C12.3107 11.0818 12.8925 10.7036 13.707 10.3865C14.3223 10.1465 15.2462 9.86286 16.948 9.78468C18.5581 9.71196 19.1821 9.69014 22.4351 9.6865V9.69086ZM33.3177 12.589C32.1614 12.589 31.2232 13.5261 31.2232 14.6829C31.2232 15.8392 32.1614 16.7774 33.3177 16.7774C34.474 16.7774 35.4122 15.8392 35.4122 14.6829C35.4122 13.5265 34.474 12.5883 33.3177 12.5883V12.589ZM24.0009 15.0363C19.0508 15.0363 15.0375 19.0498 15.0375 24C15.0375 28.9501 19.0508 32.9618 24.0009 32.9618C28.9509 32.9618 32.9628 28.9501 32.9628 24C32.9628 19.0498 28.9505 15.0363 24.0005 15.0363H24.0009ZM24.0009 18.1818C27.2139 18.1818 29.8189 20.7865 29.8189 24C29.8189 27.213 27.2139 29.8181 24.0009 29.8181C20.7875 29.8181 18.1829 27.213 18.1829 24C18.1829 20.7865 20.7875 18.1818 24.0009 18.1818Z" fill="url(#paint1_radial)"/>
<defs>
<radialGradient id="paint0_radial" cx="0" cy="0" r="1" gradientUnits="userSpaceOnUse" gradientTransform="translate(15.8178 44.1432) rotate(-90) scale(34.5975 32.1771)">
<stop stop-color="#FFDD55"/>
<stop offset="0.1" stop-color="#FFDD55"/>
<stop offset="0.5" stop-color="#FF543E"/>
<stop offset="1" stop-color="#C837AB"/>
</radialGradient>
<radialGradient id="paint1_radial" cx="0" cy="0" r="1" gradientUnits="userSpaceOnUse" gradientTransform="translate(0.698191 9.0602) rotate(78.6811) scale(15.4652 63.7458)">
<stop stop-color="#3771C8"/>
<stop offset="0.128" stop-color="#3771C8"/>
<stop offset="1" stop-color="#6600FF" stop-opacity="0"/>
</radialGradient>
</defs>
</svg>
