<svg width="34" height="34" viewBox="0 0 34 34" fill="none" xmlns="http://www.w3.org/2000/svg">
<path d="M17 34C26.3888 34 34 26.3888 34 17C34 7.61116 26.3888 0 17 0C7.61116 0 0 7.61116 0 17C0 26.3888 7.61116 34 17 34Z" fill="url(#paint0_linear)"/>
<path d="M13.8834 24.7917C13.3326 24.7917 13.4262 24.5838 13.2363 24.0594L11.6167 18.7292L24.0834 11.3334" fill="#C8DAEA"/>
<path d="M13.8833 24.7917C14.3083 24.7917 14.4961 24.5973 14.7333 24.3667L17 22.1626L14.1726 20.4576" fill="#A9C9DD"/>
<path d="M14.1724 20.4581L21.0233 25.5197C21.8051 25.9511 22.3694 25.7278 22.5641 24.7939L25.3528 11.6525C25.6383 10.5078 24.9165 9.98861 24.1686 10.3282L7.79333 16.6424C6.67556 17.0907 6.68208 17.7143 7.58958 17.9922L11.7918 19.3038L21.5205 13.1661C21.9798 12.8876 22.4013 13.0373 22.0553 13.3443" fill="url(#paint1_linear)"/>
<defs>
<linearGradient id="paint0_linear" x1="22.6678" y1="5.6678" x2="14.1678" y2="25.5" gradientUnits="userSpaceOnUse">
<stop stop-color="#37AEE2"/>
<stop offset="1" stop-color="#1E96C8"/>
</linearGradient>
<linearGradient id="paint1_linear" x1="19.1257" y1="16.9999" x2="21.7861" y2="23.0537" gradientUnits="userSpaceOnUse">
<stop stop-color="#EFF7FC"/>
<stop offset="1" stop-color="white"/>
</linearGradient>
</defs>
</svg>
